<svg xmlns="http://www.w3.org/2000/svg" fill="none" viewBox="0 0 128 128">
    <path d="M64 64c16 0 29 13 29 29s-13 29-29 29-29-13-29-29 13-29 29-29zm0-32c-7 0-13 5-13 13s5 13 13 13 13-5 13-13-5-13-13-13zm-28 8c-6 0-11 5-11 11s5 11 11 11 11-5 11-11-5-11-11-11zm56 0c-6 0-11 5-11 11s5 11 11 11 11-5 11-11-5-11-11-11zm-28 24c-8 0-15 6-15 15s6 15 15 15 15-6 15-15-6-15-15-15z" />
    <style>
        path { fill: #000; }
        @media (prefers-color-scheme: dark) {
            path { fill: #FFF; }
        }
    </style>
</svg>
